<svg width="417" height="82" viewBox="0 0 417 82" fill="none" xmlns="http://www.w3.org/2000/svg">
    <path d="M119.591 65H128.023V47.9545H136.614L145.75 65H155.159L145.091 46.5455C150.568 44.3409 153.455 39.6591 153.455 33.3409C153.455 24.4545 147.727 18.4545 137.045 18.4545H119.591V65ZM128.023 40.9545V25.5H135.75C142.045 25.5 144.864 28.3864 144.864 33.3409C144.864 38.2955 142.045 40.9545 135.795 40.9545H128.023ZM175.807 65.6818C183.943 65.6818 189.534 61.7045 190.989 55.6364L183.307 54.7727C182.193 57.7273 179.466 59.2727 175.92 59.2727C170.602 59.2727 167.08 55.7727 167.011 49.7955H191.33V47.2727C191.33 35.0227 183.966 29.6364 175.375 29.6364C165.375 29.6364 158.852 36.9773 158.852 47.75C158.852 58.7045 165.284 65.6818 175.807 65.6818ZM167.034 44.25C167.284 39.7955 170.58 36.0455 175.489 36.0455C180.216 36.0455 183.398 39.5 183.443 44.25H167.034ZM225.881 39.3182C224.744 33.4091 220.017 29.6364 211.835 29.6364C203.426 29.6364 197.699 33.7727 197.722 40.2273C197.699 45.3182 200.835 48.6818 207.54 50.0682L213.494 51.3182C216.699 52.0227 218.199 53.3182 218.199 55.2955C218.199 57.6818 215.608 59.4773 211.699 59.4773C207.926 59.4773 205.472 57.8409 204.767 54.7045L196.744 55.4773C197.767 61.8864 203.153 65.6818 211.722 65.6818C220.449 65.6818 226.608 61.1591 226.631 54.5455C226.608 49.5682 223.403 46.5227 216.812 45.0909L210.858 43.8182C207.312 43.0227 205.903 41.7955 205.926 39.7727C205.903 37.4091 208.517 35.7727 211.949 35.7727C215.744 35.7727 217.744 37.8409 218.381 40.1364L225.881 39.3182ZM248.642 65.6818C258.869 65.6818 265.369 58.4773 265.369 47.6818C265.369 36.8636 258.869 29.6364 248.642 29.6364C238.415 29.6364 231.915 36.8636 231.915 47.6818C231.915 58.4773 238.415 65.6818 248.642 65.6818ZM248.688 59.0909C243.028 59.0909 240.256 54.0455 240.256 47.6591C240.256 41.2727 243.028 36.1591 248.688 36.1591C254.256 36.1591 257.028 41.2727 257.028 47.6591C257.028 54.0455 254.256 59.0909 248.688 59.0909ZM280.58 44.5455C280.58 39.5 283.625 36.5909 287.966 36.5909C292.216 36.5909 294.761 39.3864 294.761 44.0455V65H302.989V42.7727C303.011 34.4091 298.239 29.6364 291.034 29.6364C285.807 29.6364 282.216 32.1364 280.625 36.0227H280.216V30.0909H272.352V65H280.58V44.5455ZM321.398 65.7045C326.875 65.7045 330.148 63.1364 331.648 60.2045H331.92V65H339.83V41.6364C339.83 32.4091 332.307 29.6364 325.648 29.6364C318.307 29.6364 312.67 32.9091 310.852 39.2727L318.534 40.3636C319.352 37.9773 321.67 35.9318 325.693 35.9318C329.511 35.9318 331.602 37.8864 331.602 41.3182V41.4545C331.602 43.8182 329.125 43.9318 322.966 44.5909C316.193 45.3182 309.716 47.3409 309.716 55.2045C309.716 62.0682 314.739 65.7045 321.398 65.7045ZM323.534 59.6591C320.102 59.6591 317.648 58.0909 317.648 55.0682C317.648 51.9091 320.398 50.5909 324.08 50.0682C326.239 49.7727 330.557 49.2273 331.625 48.3636V52.4773C331.625 56.3636 328.489 59.6591 323.534 59.6591ZM363.33 65.6818C372.102 65.6818 377.693 60.4773 378.284 53.0682H370.42C369.716 56.8182 367.011 58.9773 363.398 58.9773C358.261 58.9773 354.943 54.6818 354.943 47.5455C354.943 40.5 358.33 36.2727 363.398 36.2727C367.352 36.2727 369.784 38.8182 370.42 42.1818H378.284C377.716 34.6136 371.807 29.6364 363.284 29.6364C353.057 29.6364 346.602 37.0227 346.602 47.6818C346.602 58.25 352.898 65.6818 363.33 65.6818ZM400.494 65.6818C408.631 65.6818 414.222 61.7045 415.676 55.6364L407.994 54.7727C406.881 57.7273 404.153 59.2727 400.608 59.2727C395.29 59.2727 391.767 55.7727 391.699 49.7955H416.017V47.2727C416.017 35.0227 408.653 29.6364 400.062 29.6364C390.062 29.6364 383.54 36.9773 383.54 47.75C383.54 58.7045 389.972 65.6818 400.494 65.6818ZM391.722 44.25C391.972 39.7955 395.267 36.0455 400.176 36.0455C404.903 36.0455 408.085 39.5 408.131 44.25H391.722Z" fill="#E5E5E5"/>
    <circle cx="59" cy="41" r="39" fill="#67EBC1"/>
    <circle cx="59" cy="41" r="28" fill="#67EBC1" stroke="#001529" stroke-width="10"/>
    <path d="M21 75.641L64.5 50.5263C71.8333 46.2924 71.8334 35.7076 64.5 31.4737L21 6.35898C13.6667 2.12508 4.5 7.41743 4.5 15.8852L4.5 66.1147C4.5 74.5825 13.6666 79.8749 21 75.641Z" fill="#67EBC1" stroke="#001529" stroke-width="8"/>
</svg>
