<svg width="464" height="82" viewBox="0 0 464 82" fill="none" xmlns="http://www.w3.org/2000/svg">
    <path d="M127.591 65H136.023V47.9545H144.614L153.75 65H163.159L153.091 46.5455C158.568 44.3409 161.455 39.6591 161.455 33.3409C161.455 24.4545 155.727 18.4545 145.045 18.4545H127.591V65ZM136.023 40.9545V25.5H143.75C150.045 25.5 152.864 28.3864 152.864 33.3409C152.864 38.2955 150.045 40.9545 143.795 40.9545H136.023ZM183.807 65.6818C191.943 65.6818 197.534 61.7045 198.989 55.6364L191.307 54.7727C190.193 57.7273 187.466 59.2727 183.92 59.2727C178.602 59.2727 175.08 55.7727 175.011 49.7955H199.33V47.2727C199.33 35.0227 191.966 29.6364 183.375 29.6364C173.375 29.6364 166.852 36.9773 166.852 47.75C166.852 58.7045 173.284 65.6818 183.807 65.6818ZM175.034 44.25C175.284 39.7955 178.58 36.0455 183.489 36.0455C188.216 36.0455 191.398 39.5 191.443 44.25H175.034ZM233.881 39.3182C232.744 33.4091 228.017 29.6364 219.835 29.6364C211.426 29.6364 205.699 33.7727 205.722 40.2273C205.699 45.3182 208.835 48.6818 215.54 50.0682L221.494 51.3182C224.699 52.0227 226.199 53.3182 226.199 55.2955C226.199 57.6818 223.608 59.4773 219.699 59.4773C215.926 59.4773 213.472 57.8409 212.767 54.7045L204.744 55.4773C205.767 61.8864 211.153 65.6818 219.722 65.6818C228.449 65.6818 234.608 61.1591 234.631 54.5455C234.608 49.5682 231.403 46.5227 224.812 45.0909L218.858 43.8182C215.312 43.0227 213.903 41.7955 213.926 39.7727C213.903 37.4091 216.517 35.7727 219.949 35.7727C223.744 35.7727 225.744 37.8409 226.381 40.1364L233.881 39.3182ZM256.642 65.6818C266.869 65.6818 273.369 58.4773 273.369 47.6818C273.369 36.8636 266.869 29.6364 256.642 29.6364C246.415 29.6364 239.915 36.8636 239.915 47.6818C239.915 58.4773 246.415 65.6818 256.642 65.6818ZM256.688 59.0909C251.028 59.0909 248.256 54.0455 248.256 47.6591C248.256 41.2727 251.028 36.1591 256.688 36.1591C262.256 36.1591 265.028 41.2727 265.028 47.6591C265.028 54.0455 262.256 59.0909 256.688 59.0909ZM288.58 44.5455C288.58 39.5 291.625 36.5909 295.966 36.5909C300.216 36.5909 302.761 39.3864 302.761 44.0455V65H310.989V42.7727C311.011 34.4091 306.239 29.6364 299.034 29.6364C293.807 29.6364 290.216 32.1364 288.625 36.0227H288.216V30.0909H280.352V65H288.58V44.5455ZM329.398 65.7045C334.875 65.7045 338.148 63.1364 339.648 60.2045H339.92V65H347.83V41.6364C347.83 32.4091 340.307 29.6364 333.648 29.6364C326.307 29.6364 320.67 32.9091 318.852 39.2727L326.534 40.3636C327.352 37.9773 329.67 35.9318 333.693 35.9318C337.511 35.9318 339.602 37.8864 339.602 41.3182V41.4545C339.602 43.8182 337.125 43.9318 330.966 44.5909C324.193 45.3182 317.716 47.3409 317.716 55.2045C317.716 62.0682 322.739 65.7045 329.398 65.7045ZM331.534 59.6591C328.102 59.6591 325.648 58.0909 325.648 55.0682C325.648 51.9091 328.398 50.5909 332.08 50.0682C334.239 49.7727 338.557 49.2273 339.625 48.3636V52.4773C339.625 56.3636 336.489 59.6591 331.534 59.6591ZM364.33 44.5455C364.33 39.5 367.375 36.5909 371.716 36.5909C375.966 36.5909 378.511 39.3864 378.511 44.0455V65H386.739V42.7727C386.761 34.4091 381.989 29.6364 374.784 29.6364C369.557 29.6364 365.966 32.1364 364.375 36.0227H363.966V30.0909H356.102V65H364.33V44.5455ZM410.33 65.6818C419.102 65.6818 424.693 60.4773 425.284 53.0682H417.42C416.716 56.8182 414.011 58.9773 410.398 58.9773C405.261 58.9773 401.943 54.6818 401.943 47.5455C401.943 40.5 405.33 36.2727 410.398 36.2727C414.352 36.2727 416.784 38.8182 417.42 42.1818H425.284C424.716 34.6136 418.807 29.6364 410.284 29.6364C400.057 29.6364 393.602 37.0227 393.602 47.6818C393.602 58.25 399.898 65.6818 410.33 65.6818ZM447.494 65.6818C455.631 65.6818 461.222 61.7045 462.676 55.6364L454.994 54.7727C453.881 57.7273 451.153 59.2727 447.608 59.2727C442.29 59.2727 438.767 55.7727 438.699 49.7955H463.017V47.2727C463.017 35.0227 455.653 29.6364 447.062 29.6364C437.062 29.6364 430.54 36.9773 430.54 47.75C430.54 58.7045 436.972 65.6818 447.494 65.6818ZM438.722 44.25C438.972 39.7955 442.267 36.0455 447.176 36.0455C451.903 36.0455 455.085 39.5 455.131 44.25H438.722Z" fill="#E5E5E5"/>
    <circle cx="59" cy="41" r="39" fill="#67EBC1"/>
    <circle cx="59" cy="41" r="28" fill="#67EBC1" stroke="#001529" stroke-width="10"/>
    <path d="M64.5 50.5263C71.8333 46.2924 71.8334 35.7076 64.5 31.4737L21 6.35898C13.6667 2.12508 4.5 7.41743 4.5 15.8852L4.5 66.1147C4.5 74.5825 13.6666 79.8749 21 75.641L64.5 50.5263Z" fill="#67EBC1" stroke="#001529" stroke-width="8"/>
</svg>
